<?xml version="1.0" encoding="UTF-8"?>
<svg id="Calque_1" xmlns="http://www.w3.org/2000/svg" version="1.1" viewBox="0 0 160 160">
  <!-- Generator: Adobe Illustrator 29.3.1, SVG Export Plug-In . SVG Version: 2.1.0 Build 151)  -->
  <path d="M23.9,68.8h4.2l.8,2.5h2.6l-4.4-11.8h-2.3l-4.4,11.8h2.6l.8-2.5ZM26,62.3l1.5,4.5h-3l1.5-4.5Z"/>
  <polygon points="44 71.3 46.4 71.3 46.4 61.4 50.1 61.4 50.1 59.5 46.4 59.5 44 59.5 40.4 59.5 40.4 61.4 44 61.4 44 71.3"/>
  <polygon points="63.4 71.3 68.9 71.3 68.9 69.4 63.4 69.4 63.4 66.1 68.1 66.1 68.1 64.3 63.4 64.3 63.4 61.4 68.9 61.4 68.9 59.5 63.4 59.5 62.6 59.5 61 59.5 61 71.3 62.6 71.3 63.4 71.3"/>
  <polygon points="82.3 71.3 87.4 71.3 87.4 69.4 82.3 69.4 82.3 59.5 79.8 59.5 79.8 71.3 81.5 71.3 82.3 71.3"/>
  <rect x="98.5" y="59.5" width="2.4" height="11.8"/>
  <polygon points="115.1 71.3 120.6 71.3 120.6 69.4 115.1 69.4 115.1 66.1 119.8 66.1 119.8 64.3 115.1 64.3 115.1 61.4 120.6 61.4 120.6 59.5 115.1 59.5 114.4 59.5 112.7 59.5 112.7 71.3 114.4 71.3 115.1 71.3"/>
  <path d="M134,66.9h1.9l2.2,4.4h2.6c0-.1-2.6-5-2.6-5,.3-.1.6-.3.9-.5.4-.3.7-.7.9-1.1s.3-1,.3-1.6-.2-1.4-.5-2-.9-.9-1.5-1.2-1.4-.4-2.3-.4h-4.4v11.8h2.4v-4.4ZM136,61.4c.4,0,.8,0,1.1.2s.5.4.6.6.2.6.2,1,0,.7-.2.9-.4.5-.6.6-.6.2-1.1.2h-2v-3.6h2Z"/>
  <path d="M25.2,89.4c-1.2,0-2.4.3-3.6.3s-1.6-.2-1.6-1.3c0-1.7,2.7-3.1,5-3.1,3.6,0,5.4,1.1,6.5,1.9v-6.8c-1.2-.2-2.5-.4-3.9-.4-6.2,0-8.5,3.7-8.5,7.1,0,5,4.9,5.3,8.5,5.5,2.2,0,4,.2,4,1.5s-1.5,2.4-4.4,2.4-4.8-.6-8.2-2.2v7.1c1.2.2,3.6.4,5.1.4,4.2,0,8.6-1.2,8.6-6.4s-3.9-6-7.6-6Z"/>
  <path d="M46.7,80.4l.6,4.4h-.5c-.6-4.2-3.3-4.9-4.9-4.9-4,0-6.8,3.9-6.8,10.6s3,11.4,5.9,11.4,4.3-2.9,5.2-5.9h.5c-.2,1.8-.6,3.7-1.1,5.5h6.1c-1.2-4-1.8-7.2-1.8-10.6s.6-6.5,1.8-10.6h-5ZM38.4,96.7c-1,0-1.8-.5-1.8-1.8,0-3.9,7.7-9.7,10.8-9.7s1.8.6,1.8,1.8c0,3.9-7.7,9.6-10.8,9.6Z"/>
  <path d="M64.7,80.4c1,2.2,1.5,4.3,1.5,6.2,0,7-6.5,10-9,10s-1-.2-1-1c0-1,1-2,2.2-3.3,2.1-2.2,4.8-5,4.8-8.7s-.2-2.1-.7-3.3h-8.6c.9,3.1,1.8,6.7,1.8,10.4s-.8,5.7-.8,8.4.8,2.6,2.7,2.6c3.6,0,6.9-5.5,7.7-9.7h.5l-1.3,9.3h6.2c-1.2-4-1.8-7.2-1.8-10.6s.6-6.3,1.9-10.6h-6.2Z"/>
  <path d="M86.2,86.4c0,7.2-6.4,10.3-8.8,10.3s-1-.2-1-.9,1-2,2.2-3.3c2.1-2.2,4.8-5.1,4.8-8.7s-.2-2.1-.7-3.3h-10.4c2.6,7.4,3.6,12.8,3.8,21.1h9.3c.2-8.3,1.3-13,3.8-21.1h-4.3c.9,2.1,1.2,4.1,1.2,5.9Z"/>
  <path d="M101.7,80.4l.6,4.4h-.5c-.6-4.2-3.3-4.9-4.9-4.9-4,0-6.8,3.9-6.8,10.6s3,11.4,5.9,11.4,4.3-2.9,5.2-5.9h.5c-.2,1.8-.6,3.7-1.1,5.5h6.1c-1.2-4-1.8-7.2-1.8-10.6s.6-6.5,1.8-10.6h-5ZM93.5,96.7c-1,0-1.8-.5-1.8-1.8,0-3.9,7.7-9.7,10.8-9.7s1.8.6,1.8,1.8c0,3.9-7.7,9.6-10.8,9.6Z"/>
  <path d="M119.9,80.4l.6,4.4h-.5c-.6-4.4-3.3-4.8-4.9-4.8-4,0-6.8,3.8-6.8,10.6s3,11.3,5.9,11.3,4.3-2.9,5.2-5.9h.5c1.8,1.1,2.6,2.2,2.6,3.4,0,2.6-4.1,4.7-8.6,4.7s-1.8,0-2.7-.3v7.2c1,.3,2,.4,2.9.4,5.5,0,9.9-4.1,9.9-11.7s-.2-3.3-.4-4.8c-.2-1.5-.4-2.9-.4-4.7,0-2.6.4-5.4,1.8-9.9h-5.1ZM111.6,96.7c-1,0-1.8-.5-1.8-1.8,0-4,7.7-9.7,10.8-9.7s1.8.6,1.8,1.8c0,3.9-7.7,9.6-10.8,9.6Z"/>
  <path d="M131.1,97.1c-1.8,0-3.1-.5-3.1-2.1,0-4.2,7.1-9.2,10.5-9.2s1,.2,1,.9c0,1.4-2.6,4.1-6.2,4.1v.7c3.9,0,6.3-2.6,7.1-4.8,0-2.6-.5-5-1.2-6.3-1.4-.3-2.8-.5-3.9-.5-6.1,0-9,5.6-9,11.2,0,8.2,5.7,10.8,10.1,10.8s3-.2,4.4-.6v-7c-.8.8-6.2,2.7-9.7,2.7Z"/>
</svg>